<?xml version="1.0" encoding="UTF-8"?>
<svg width="16px" height="16px" viewBox="0 0 16 16" version="1.1" xmlns="http://www.w3.org/2000/svg" xmlns:xlink="http://www.w3.org/1999/xlink">
    <!-- Generator: Sketch 52.2 (67145) - http://www.bohemiancoding.com/sketch -->
    <title>icon/饿了么/active@svg</title>
    <desc>Created with Sketch.</desc>
    <defs>
        <linearGradient x1="100%" y1="21.4385122%" x2="21.2445945%" y2="80.5719636%" id="linearGradient-1">
            <stop stop-color="#008BFF" offset="0%"></stop>
            <stop stop-color="#5DB5FF" offset="100%"></stop>
        </linearGradient>
    </defs>
    <g id="icon/饿了么/active" stroke="none" stroke-width="1" fill="none" fill-rule="evenodd">
        <g id="饿了么" fill="url(#linearGradient-1)" fill-rule="nonzero">
            <path d="M8.2153645,13.4753303 C5.94858122,13.5962534 3.95435672,12.2534468 3.08496859,10.4227643 C2.12954384,8.41115656 2.30977482,6.42502597 3.6738476,4.65250901 C4.97424844,2.96264829 6.78181255,2.29133003 8.92246177,2.54290432 C9.985078,2.66780705 10.9218713,3.09710925 11.7385797,3.77921023 C12.1816908,4.14953057 12.1718047,4.31501308 11.6805422,4.59243871 C11.2536775,4.83360442 10.8246696,5.07096047 10.4000172,5.31593585 C9.22595778,5.99276453 8.04463937,6.65785806 6.88426839,7.35696649 C6.26286204,7.73113049 6.13859463,8.32805817 6.48592124,8.94736763 C6.86166171,9.61715521 7.59008669,9.77307957 8.36185833,9.33401513 C10.6551543,8.02896508 12.9407764,6.71095537 15.2412968,5.41818468 C15.6219458,5.20433295 15.6637716,4.98673956 15.4946365,4.62427668 C14.8995354,3.34912573 14.0231303,2.3017046 12.8487252,1.51817116 C10.2536961,-0.213187734 7.48483094,-0.490579356 4.64932104,0.824641166 C1.82062081,2.13673229 0.284025392,4.44080024 0.0285771923,7.47748132 C-0.183074977,9.99492481 0.790324506,12.1263671 2.63687988,13.880448 C5.21144543,16.3259839 9.51414069,16.7107946 12.4714292,14.7447668 C13.2414725,14.2330125 13.2414725,14.2330125 12.7640367,13.4513499 C12.2478169,12.6064195 11.7355724,12.4493727 10.8394296,12.87211 C9.99147289,13.2719892 9.11247518,13.5318291 8.2153645,13.4753303 Z M15.9994492,9.89788022 C15.9567939,9.29312914 15.6235359,8.80188581 15.3359406,8.29540382 C15.2420573,8.12998931 15.0914155,8.19363121 14.9569854,8.26911028 C14.4298772,8.56606044 13.9043936,8.86556172 13.3732756,9.15530071 C13.1475201,9.27846871 13.1075956,9.42762407 13.2381196,9.64412897 C13.5406132,10.1458489 13.8408944,10.6488954 14.1309094,11.1575203 C14.2569397,11.3784812 14.4081001,11.4290273 14.6255941,11.293716 C14.9431933,11.0961914 15.2710588,10.9129872 15.5776659,10.7002579 C15.8503975,10.5107949 16.0106489,10.2445942 15.9994492,9.89788022 Z" id="Shape"></path>
        </g>
    </g>
</svg>