<?xml version="1.0" encoding="UTF-8"?>
<svg width="16px" height="16px" viewBox="0 0 16 16" version="1.1" xmlns="http://www.w3.org/2000/svg" xmlns:xlink="http://www.w3.org/1999/xlink">
    <!-- Generator: Sketch 52.2 (67145) - http://www.bohemiancoding.com/sketch -->
    <title>icon/篮子/active@svg</title>
    <desc>Created with Sketch.</desc>
    <defs>
        <linearGradient x1="100%" y1="21.4385122%" x2="21.2445945%" y2="80.5719636%" id="linearGradient-1">
            <stop stop-color="#008BFF" offset="0%"></stop>
            <stop stop-color="#5DB5FF" offset="100%"></stop>
        </linearGradient>
    </defs>
    <g id="icon/篮子/active" stroke="none" stroke-width="1" fill="none" fill-rule="evenodd">
        <g id="篮子">
            <rect id="Rectangle" fill="#000000" opacity="0" x="0" y="0" width="16" height="16"></rect>
            <path d="M12.0510853,4.81849942 L12.0545709,4.81629292 L10.0488308,2.19258905 L9.33432466,2.73856977 L10.9244434,4.81848344 L5.10520047,4.81848344 L6.65163689,2.75962745 L5.96608706,2.21319903 L3.97393772,4.81846744 L1.25850422,4.81846744 L1.25850422,7.96485589 L2.15736498,7.96485589 L2.15736498,12.4437303 C2.15736498,13.1872247 2.76216972,13.807379 3.50566414,13.807379 L12.4943199,13.807379 C13.2378143,13.807379 13.842619,13.1872247 13.842619,12.4437303 L13.842619,7.96485589 L14.7414798,7.96485589 L14.7414798,4.81849942 L12.0510853,4.81849942 Z M12.9437742,12.4437622 C12.9437742,12.6917536 12.7418795,12.9081185 12.4943359,12.9081185 L3.50566414,12.9081185 C3.25765678,12.9081185 3.05620977,12.6917536 3.05620978,12.4437622 L3.05620978,7.96488788 L12.9437742,7.96488788 L12.9437742,12.4437622 Z M13.842619,7.06561139 L2.15736498,7.06561139 L2.15736498,5.71777591 L13.842619,5.71777591 L13.842619,7.06561139 Z M4.40447695,8.86330095 L5.30333773,8.86330095 L5.30333773,12.0097214 L4.40447695,12.0097214 L4.40447695,8.86330095 Z M10.6966783,8.86330095 L11.595539,8.86330095 L11.595539,12.0097214 L10.6966783,12.0097214 L10.6966783,8.86330095 Z M7.55044969,8.86330095 L8.44953431,8.86330095 L8.44953431,12.0097214 L7.55044969,12.0097214 L7.55044969,8.86330095 Z" id="Shape" fill="url(#linearGradient-1)" fill-rule="nonzero"></path>
        </g>
    </g>
</svg>