<?xml version="1.0" encoding="UTF-8"?>
<svg width="16px" height="16px" viewBox="0 0 16 16" version="1.1" xmlns="http://www.w3.org/2000/svg" xmlns:xlink="http://www.w3.org/1999/xlink">
    <!-- Generator: Sketch 52.2 (67145) - http://www.bohemiancoding.com/sketch -->
    <title>icon/订单/active@svg</title>
    <desc>Created with Sketch.</desc>
    <defs>
        <linearGradient x1="100%" y1="21.4385122%" x2="21.2445945%" y2="80.5719636%" id="linearGradient-1">
            <stop stop-color="#008BFF" offset="0%"></stop>
            <stop stop-color="#5DB5FF" offset="100%"></stop>
        </linearGradient>
    </defs>
    <g id="icon/订单/active" stroke="none" stroke-width="1" fill="none" fill-rule="evenodd">
        <g id="订单-">
            <rect id="Rectangle" fill="#000000" opacity="0" x="0" y="0" width="16" height="16"></rect>
            <path d="M9.6,14.8363636 L2.03636364,14.8363636 L2.03636364,1.89090909 L13.3818182,1.89090909 L13.3818182,11.0181818 C13.3818182,13.1272727 11.6727273,14.8363636 9.6,14.8363636 Z M2.76363636,14.1090909 L9.6,14.1090909 C11.2727273,14.1090909 12.6545455,12.7272727 12.6545455,11.0545455 L12.6545455,2.61818181 L2.76363636,2.61818181 L2.76363636,14.1090909 Z M10.1090909,5.2 L4.65454545,5.2 C4.43636364,5.2 4.29090909,5.05454545 4.29090909,4.83636364 C4.29090909,4.61818183 4.43636364,4.47272728 4.65454545,4.47272727 L10.1090909,4.47272727 C10.3272727,4.47272727 10.4727273,4.61818181 10.4727273,4.83636364 C10.4727273,5.05454547 10.3272727,5.2 10.1090909,5.2 Z M9.92727273,8.10909091 L4.72727273,8.10909091 C4.50909092,8.10909091 4.36363638,7.96363636 4.36363636,7.74545455 C4.36363634,7.52727273 4.50909091,7.38181819 4.72727273,7.38181819 L9.92727273,7.38181819 C10.1454545,7.38181819 10.2909091,7.52727273 10.2909091,7.74545455 C10.2909091,7.96363636 10.1090909,8.10909091 9.92727273,8.10909091 Z M8.32727273,10.6545455 L4.72727273,10.6545455 C4.50909092,10.6545455 4.36363638,10.5090909 4.36363636,10.2909091 C4.36363634,10.0727273 4.50909091,9.92727273 4.72727273,9.92727273 L8.32727273,9.92727273 C8.54545455,9.92727273 8.69090909,10.0727273 8.69090909,10.2909091 C8.69090909,10.5090909 8.50909091,10.6545455 8.32727273,10.6545455 Z" id="Shape" fill="url(#linearGradient-1)" fill-rule="nonzero"></path>
        </g>
    </g>
</svg>