<?xml version="1.0" encoding="UTF-8"?>
<svg width="16px" height="16px" viewBox="0 0 16 16" version="1.1" xmlns="http://www.w3.org/2000/svg" xmlns:xlink="http://www.w3.org/1999/xlink">
    <!-- Generator: Sketch 52.2 (67145) - http://www.bohemiancoding.com/sketch -->
    <title>icon搜索@svg</title>
    <desc>Created with Sketch.</desc>
    <g id="icon搜索" stroke="none" stroke-width="1" fill="none" fill-rule="evenodd">
        <g id="搜索">
            <rect id="Rectangle" fill="#000000" opacity="0" x="0" y="0" width="16" height="16"></rect>
            <path d="M10.7588335,10.2172007 C10.7588335,10.2172007 10.5764452,10.4584612 10.3323067,10.6949408 L13.1435207,13.4496331 L13.6100844,13.0134169 L10.7588335,10.2172007 Z M11.7571487,7.23103336 C11.7571487,9.96567527 9.65064088,12.0185394 7.03965911,12.0185394 C4.31713698,11.9789982 2.34297147,9.83513978 2.34297147,7.23471086 C2.34297147,4.72286189 4.46789877,2.60472998 7.03965911,2.60472998 C9.65064086,2.60473 11.7571487,4.75039523 11.7571487,7.23103336 Z M7.02248675,3.2323045 C4.78450011,3.2323045 2.97054597,5.0476337 2.97054597,7.31160273 C2.97054597,9.57563572 4.78450011,11.4035164 7.02248675,11.4035164 C9.26077719,11.4035164 11.1295102,9.57563572 11.1295102,7.31160273 C11.1295102,5.0476337 9.26077719,3.2323045 7.02248675,3.2323045 Z" id="Shape" fill="#7C7C7C" fill-rule="nonzero"></path>
        </g>
    </g>
</svg>