<?xml version="1.0" encoding="UTF-8"?>
<svg width="16px" height="16px" viewBox="0 0 16 16" version="1.1" xmlns="http://www.w3.org/2000/svg" xmlns:xlink="http://www.w3.org/1999/xlink">
    <!-- Generator: Sketch 52.2 (67145) - http://www.bohemiancoding.com/sketch -->
    <title>icon/五角星@svg</title>
    <desc>Created with Sketch.</desc>
    <g id="icon/五角星" stroke="none" stroke-width="1" fill="none" fill-rule="evenodd">
        <g id="五角星">
            <rect id="Rectangle" fill="#000000" opacity="0" x="0" y="0" width="16" height="16"></rect>
            <path d="M14.9490885,6.56070384 C14.867192,6.30756347 14.6494197,6.12234505 14.3860463,6.08419492 L10.4027469,5.38433342 L8.62144266,1.79937203 C8.50512152,1.56111756 8.26218223,1.4103398 7.99604267,1.4103398 C7.72985514,1.4103398 7.4878752,1.56110158 7.36875597,1.79937203 L5.58836309,5.38433342 L1.60600713,6.10838652 C1.3426177,6.14655264 1.12393397,6.33175508 1.04294888,6.58489544 C0.960125031,6.83710844 1.02899034,7.11538377 1.21978898,7.3005862 L4.10116341,9.96324492 L3.34824988,13.8329733 C3.30357616,14.0944919 3.40966423,14.3616228 3.6265252,14.5161101 C3.83347289,14.7230578 4.26031948,14.6240529 4.36173873,14.5710168 L7.99604267,12.7952928 L11.6070664,14.5710168 C11.7084856,14.6240529 12.1096696,14.7487204 12.3422639,14.5161101 C12.5572702,14.3616228 12.6670677,14.0945079 12.6214826,13.8329733 L11.8918333,9.96324492 L14.7741351,7.27545125 C14.9640064,7.09119217 15.0319284,6.81291684 14.9490885,6.56070384 Z" id="Path" fill="#F5660B"></path>
        </g>
    </g>
</svg>