<?xml version="1.0" encoding="UTF-8"?>
<svg width="16px" height="16px" viewBox="0 0 16 16" version="1.1" xmlns="http://www.w3.org/2000/svg" xmlns:xlink="http://www.w3.org/1999/xlink">
    <!-- Generator: Sketch 52.2 (67145) - http://www.bohemiancoding.com/sketch -->
    <title>icon/我的/inactive@svg</title>
    <desc>Created with Sketch.</desc>
    <g id="icon/我的/inactive" stroke="none" stroke-width="1" fill="none" fill-rule="evenodd">
        <g id="我的">
            <rect id="Rectangle" fill="#000000" opacity="0" x="0" y="0" width="16" height="16"></rect>
            <path d="M12,10.4 C11.9,10.3 11.8,10.2 11.7,10.2 C11.4,10.2 11.2,10.4 11.2,10.7 C11.2,10.9 11.3,11 11.4,11.1 C12.6,12 13.4,13.4 13.5,15 L14.4,15 C14.3,13.1 13.4,11.5 12,10.4 Z M8.2,8.7 C6.4,8.7 4.9,7.2 4.9,5.4 C4.8,3.5 6.3,2 8.2,2 C10,2 11.5,3.5 11.5,5.3 C11.5,7.2 10,8.7 8.2,8.7 Z M12.5,5.4 C12.5,3 10.6,1 8.1,1 C5.8,1 3.8,2.9 3.8,5.4 C3.8,7 4.7,8.4 6,9.2 C3.5,9.9 1.7,12.2 1.6,15 L2.5,15 C2.6,12.1 5,9.8 7.9,9.7 L8,9.7 C8.1,9.7 8.1,9.7 8.2,9.7 C10.6,9.7 12.5,7.8 12.5,5.4 Z" id="Shape" fill="#7C7C7C" fill-rule="nonzero"></path>
        </g>
    </g>
</svg>